{
 "cells": [
  {
   "cell_type": "markdown",
   "id": "21fcf6fa",
   "metadata": {},
   "source": [
    "This notebook renders a few example images and videos.\n",
    "\n",
    "Dependencies:\n",
    "\n",
    "* OSM - based graph of germany at `h3_resolution`\n",
    "* Running `route3_road` instance using that graph.\n",
    "* `ffmpeg`"
   ]
  },
  {
   "cell_type": "code",
   "execution_count": null,
   "id": "fb24be47",
   "metadata": {},
   "outputs": [],
   "source": [
    "import os.path\n",
    "from pathlib import Path\n",
    "\n",
    "notebookdir = Path(os.path.dirname(os.path.realpath(\"__file__\")))\n",
    "\n",
    "# additional libraries to the dev-dependencies of route3_road_client\n",
    "%pip install rasterio==1.2.10 matplotlib==3.5.1 earthpy==0.9.4 h3ronpy\n",
    "\n",
    "import os\n",
    "import subprocess\n",
    "import numpy as np\n",
    "import matplotlib.pyplot as plt\n",
    "import earthpy as et\n",
    "import earthpy.spatial as es\n",
    "import earthpy.plot as ep\n",
    "import rasterio as rio\n",
    "import geopandas as gpd\n",
    "from rasterio.windows import transform\n",
    "from rasterio.plot import plotting_extent\n",
    "from h3ronpy.raster import raster_to_dataframe, nearest_h3_resolution\n",
    "from h3ronpy.util import dataframe_to_geodataframe\n",
    "import h3.api.numpy_int as h3\n",
    "\n",
    "#bounds = (8.0, 48.2, 8.3, 48.4)\n",
    "bounds = (8.0, 48.2, 8.4, 48.4)\n",
    "h3_resolution = 10"
   ]
  },
  {
   "cell_type": "code",
   "execution_count": null,
   "id": "15e3a6af",
   "metadata": {},
   "outputs": [],
   "source": [
    "#https://earthpy.readthedocs.io/en/latest/gallery_vignettes/plot_dem_hillshade.html\n",
    "#with rio.open(os.path.expanduser(\"~/tmp/Copernicus_DSM_COG_10_N48_00_E008_00_DEM.tif\")) as src:  \n",
    "\n",
    "def fetch_elevation():\n",
    "    with rio.Env(AWS_NO_SIGN_REQUEST=\"YES\") as env:\n",
    "        with rio.open(\"s3://copernicus-dem-30m/Copernicus_DSM_COG_10_N48_00_E008_00_DEM/Copernicus_DSM_COG_10_N48_00_E008_00_DEM.tif\") as src:\n",
    "            window = src.window(*bounds)\n",
    "            window_transform = transform(window, src.transform)\n",
    "            elevation = src.read(1, window=window)\n",
    "            # Set masked values to np.nan\n",
    "            elevation[elevation < 0] = np.nan\n",
    "            \n",
    "            pe = plotting_extent(elevation, transform=window_transform)\n",
    "            return pe, elevation\n",
    "\n",
    "def fetch_population():\n",
    "    with rio.Env(AWS_NO_SIGN_REQUEST=\"YES\") as env:\n",
    "        with rio.open(\"s3://dataforgood-fb-data/hrsl-cogs/hrsl_general/hrsl_general-latest.vrt\") as src:\n",
    "            window = src.window(*bounds)\n",
    "            window_transform = transform(window, src.transform)\n",
    "            population_band = src.read(1, window=window)\n",
    "            axis_order = \"yx\"\n",
    "            \n",
    "            conversion_h3_res = nearest_h3_resolution(population_band.shape, window_transform, axis_order=axis_order)\n",
    "            \n",
    "            population_band[np.isnan(population_band)] = 0\n",
    "            \n",
    "            df = raster_to_dataframe(population_band, window_transform, conversion_h3_res,\n",
    "                                                nodata_value=0,\n",
    "                                                compacted=False, axis_order=axis_order)\n",
    "            df.rename(columns = {'value':'num_people'}, inplace = True)\n",
    "            if h3_resolution > conversion_h3_res:\n",
    "                raise ValueError(f\"only h3 resolutions up to {conversion_h3_res}\")\n",
    "            elif h3_resolution < conversion_h3_res:\n",
    "                # scale down\n",
    "                df[\"h3index\"] = df[\"h3index\"].apply(lambda i: h3.h3_to_parent(i, h3_resolution))\n",
    "                return df.groupby(by=[\"h3index\"]).sum().reset_index()\n",
    "            else: \n",
    "                return df         "
   ]
  },
  {
   "cell_type": "code",
   "execution_count": null,
   "id": "7e22d355",
   "metadata": {
    "scrolled": false
   },
   "outputs": [],
   "source": [
    "# Create and plot the hillshade with earthpy\n",
    "hillshade_plotting_extent, elevation_arr = fetch_elevation()\n",
    "hillshade = es.hillshade(elevation_arr, azimuth=270)\n",
    "population = dataframe_to_geodataframe(fetch_population())"
   ]
  },
  {
   "cell_type": "code",
   "execution_count": null,
   "id": "71fe3c54",
   "metadata": {},
   "outputs": [],
   "source": [
    "# print(hillshade_plotting_extent, bounds)\n",
    "\n",
    "fig, ax = plt.subplots(figsize=(24, 24))\n",
    "\n",
    "population.plot(\"num_people\",\n",
    "                ax=ax, \n",
    "                zorder=10, \n",
    "                alpha=0.9, \n",
    "                cmap=\"viridis\", \n",
    "                edgecolor=\"black\", \n",
    "                linewidth=0.3,\n",
    "                #legend=True,\n",
    ")\n",
    "\n",
    "p_hillshade = ep.plot_bands(\n",
    "    hillshade,\n",
    "    ax=ax,\n",
    "    cbar=False,\n",
    "    alpha=0.3,\n",
    "    extent=hillshade_plotting_extent,\n",
    "    #title=\"Hillshade made from DTM\",\n",
    ")\n",
    "\n",
    "plt.show()"
   ]
  },
  {
   "cell_type": "code",
   "execution_count": null,
   "id": "056554d4",
   "metadata": {},
   "outputs": [],
   "source": [
    "import route3_road_client as rrc\n",
    "import pyarrow as pa\n",
    "from shapely.geometry import Polygon\n",
    "\n",
    "def table_to_geodataframe(table: pa.Table, column_name: str = \"h3index\") -> gpd.GeoDataFrame:\n",
    "    df = table.to_pandas()\n",
    "    return gpd.GeoDataFrame(df,\n",
    "                            geometry=[Polygon(h3.h3_to_geo_boundary(h, geo_json=True)) for h in\n",
    "                                      np.nditer(df[column_name].to_numpy())],\n",
    "                            crs=4326)\n",
    "\n",
    "\n",
    "server = rrc.Server(hostport=\"127.0.0.1:7088\")\n",
    "graph_handle = rrc.build_graph_handle(\"germany\", 10)"
   ]
  },
  {
   "cell_type": "code",
   "execution_count": 44,
   "id": "c29f7560",
   "metadata": {},
   "outputs": [
    {
     "name": "stdout",
     "output_type": "stream",
     "text": [
      "rendering /tmp/vframes/f_00001.png\n",
      "rendering /tmp/vframes/f_00002.png\n",
      "rendering /tmp/vframes/f_00003.png\n",
      "rendering /tmp/vframes/f_00004.png\n",
      "rendering /tmp/vframes/f_00005.png\n",
      "rendering /tmp/vframes/f_00006.png\n",
      "rendering /tmp/vframes/f_00007.png\n",
      "rendering /tmp/vframes/f_00008.png\n",
      "rendering /tmp/vframes/f_00009.png\n"
     ]
    },
    {
     "name": "stderr",
     "output_type": "stream",
     "text": [
      "ffmpeg version 4.2.4-1ubuntu0.1 Copyright (c) 2000-2020 the FFmpeg developers\n",
      "  built with gcc 9 (Ubuntu 9.3.0-10ubuntu2)\n",
      "  configuration: --prefix=/usr --extra-version=1ubuntu0.1 --toolchain=hardened --libdir=/usr/lib/x86_64-linux-gnu --incdir=/usr/include/x86_64-linux-gnu --arch=amd64 --enable-gpl --disable-stripping --enable-avresample --disable-filter=resample --enable-avisynth --enable-gnutls --enable-ladspa --enable-libaom --enable-libass --enable-libbluray --enable-libbs2b --enable-libcaca --enable-libcdio --enable-libcodec2 --enable-libflite --enable-libfontconfig --enable-libfreetype --enable-libfribidi --enable-libgme --enable-libgsm --enable-libjack --enable-libmp3lame --enable-libmysofa --enable-libopenjpeg --enable-libopenmpt --enable-libopus --enable-libpulse --enable-librsvg --enable-librubberband --enable-libshine --enable-libsnappy --enable-libsoxr --enable-libspeex --enable-libssh --enable-libtheora --enable-libtwolame --enable-libvidstab --enable-libvorbis --enable-libvpx --enable-libwavpack --enable-libwebp --enable-libx265 --enable-libxml2 --enable-libxvid --enable-libzmq --enable-libzvbi --enable-lv2 --enable-omx --enable-openal --enable-opencl --enable-opengl --enable-sdl2 --enable-libdc1394 --enable-libdrm --enable-libiec61883 --enable-nvenc --enable-chromaprint --enable-frei0r --enable-libx264 --enable-shared\n",
      "  libavutil      56. 31.100 / 56. 31.100\n",
      "  libavcodec     58. 54.100 / 58. 54.100\n",
      "  libavformat    58. 29.100 / 58. 29.100\n",
      "  libavdevice    58.  8.100 / 58.  8.100\n",
      "  libavfilter     7. 57.100 /  7. 57.100\n",
      "  libavresample   4.  0.  0 /  4.  0.  0\n",
      "  libswscale      5.  5.100 /  5.  5.100\n",
      "  libswresample   3.  5.100 /  3.  5.100\n",
      "  libpostproc    55.  5.100 / 55.  5.100\n",
      "Input #0, image2, from '/tmp/vframes/f_%05d.png':\n",
      "  Duration: 00:00:00.36, start: 0.000000, bitrate: N/A\n",
      "    Stream #0:0: Video: png, rgba(pc), 816x401 [SAR 2835:2835 DAR 816:401], 25 fps, 25 tbr, 25 tbn, 25 tbc\n",
      "Stream mapping:\n",
      "  Stream #0:0 -> #0:0 (png (native) -> png (native))\n",
      "Press [q] to stop, [?] for help\n",
      "Output #0, image2, to '/tmp/vframes/palette.png':\n",
      "  Metadata:\n",
      "    encoder         : Lavf58.29.100\n",
      "    Stream #0:0: Video: png, rgba, 16x16 [SAR 1:1 DAR 1:1], q=2-31, 200 kb/s, 25 fps, 25 tbn, 25 tbc\n",
      "    Metadata:\n",
      "      encoder         : Lavc58.54.100 png\n",
      "[Parsed_palettegen_1 @ 0x55600f26ba80] 255(+1) colors generated out of 56484 colors; ratio=0.004515\n",
      "[Parsed_palettegen_1 @ 0x55600f26ba80] Dupped color: FF000000\n",
      "frame=    1 fps=0.0 q=-0.0 Lsize=N/A time=00:00:00.04 bitrate=N/A speed=0.207x    \n",
      "video:1kB audio:0kB subtitle:0kB other streams:0kB global headers:0kB muxing overhead: unknown\n",
      "ffmpeg version 4.2.4-1ubuntu0.1 Copyright (c) 2000-2020 the FFmpeg developers\n",
      "  built with gcc 9 (Ubuntu 9.3.0-10ubuntu2)\n",
      "  configuration: --prefix=/usr --extra-version=1ubuntu0.1 --toolchain=hardened --libdir=/usr/lib/x86_64-linux-gnu --incdir=/usr/include/x86_64-linux-gnu --arch=amd64 --enable-gpl --disable-stripping --enable-avresample --disable-filter=resample --enable-avisynth --enable-gnutls --enable-ladspa --enable-libaom --enable-libass --enable-libbluray --enable-libbs2b --enable-libcaca --enable-libcdio --enable-libcodec2 --enable-libflite --enable-libfontconfig --enable-libfreetype --enable-libfribidi --enable-libgme --enable-libgsm --enable-libjack --enable-libmp3lame --enable-libmysofa --enable-libopenjpeg --enable-libopenmpt --enable-libopus --enable-libpulse --enable-librsvg --enable-librubberband --enable-libshine --enable-libsnappy --enable-libsoxr --enable-libspeex --enable-libssh --enable-libtheora --enable-libtwolame --enable-libvidstab --enable-libvorbis --enable-libvpx --enable-libwavpack --enable-libwebp --enable-libx265 --enable-libxml2 --enable-libxvid --enable-libzmq --enable-libzvbi --enable-lv2 --enable-omx --enable-openal --enable-opencl --enable-opengl --enable-sdl2 --enable-libdc1394 --enable-libdrm --enable-libiec61883 --enable-nvenc --enable-chromaprint --enable-frei0r --enable-libx264 --enable-shared\n",
      "  libavutil      56. 31.100 / 56. 31.100\n",
      "  libavcodec     58. 54.100 / 58. 54.100\n",
      "  libavformat    58. 29.100 / 58. 29.100\n",
      "  libavdevice    58.  8.100 / 58.  8.100\n",
      "  libavfilter     7. 57.100 /  7. 57.100\n",
      "  libavresample   4.  0.  0 /  4.  0.  0\n",
      "  libswscale      5.  5.100 /  5.  5.100\n",
      "  libswresample   3.  5.100 /  3.  5.100\n",
      "  libpostproc    55.  5.100 / 55.  5.100\n",
      "Input #0, image2, from '/tmp/vframes/f_%05d.png':\n",
      "  Duration: 00:00:04.50, start: 0.000000, bitrate: N/A\n",
      "    Stream #0:0: Video: png, rgba(pc), 816x401 [SAR 2835:2835 DAR 816:401], 2 fps, 2 tbr, 2 tbn, 2 tbc\n",
      "Input #1, png_pipe, from '/tmp/vframes/palette.png':\n",
      "  Duration: N/A, bitrate: N/A\n",
      "    Stream #1:0: Video: png, rgba(pc), 16x16 [SAR 1:1 DAR 1:1], 25 tbr, 25 tbn, 25 tbc\n",
      "Stream mapping:\n",
      "  Stream #0:0 (png) -> scale\n",
      "  Stream #1:0 (png) -> paletteuse:palette\n",
      "  paletteuse -> Stream #0:0 (gif)\n",
      "Press [q] to stop, [?] for help\n",
      "Output #0, gif, to '/home/nico/CLionProjects/route3/crates/route3_road/doc/within-threshold.gif':\n",
      "  Metadata:\n",
      "    encoder         : Lavf58.29.100\n",
      "    Stream #0:0: Video: gif, pal8, 800x393 [SAR 20043:20050 DAR 816:401], q=2-31, 200 kb/s, 2 fps, 100 tbn, 2 tbc (default)\n",
      "    Metadata:\n",
      "      encoder         : Lavc58.54.100 gif\n",
      "frame=    9 fps=0.0 q=-0.0 Lsize=    2047kB time=00:00:04.01 bitrate=4181.5kbits/s speed=  19x    \n",
      "video:2047kB audio:0kB subtitle:0kB other streams:0kB global headers:0kB muxing overhead: 0.000954%\n"
     ]
    },
    {
     "name": "stdout",
     "output_type": "stream",
     "text": [
      "rendering /tmp/vframes/f_00001.png\n",
      "rendering /tmp/vframes/f_00002.png\n",
      "rendering /tmp/vframes/f_00003.png\n",
      "rendering /tmp/vframes/f_00004.png\n",
      "rendering /tmp/vframes/f_00005.png\n",
      "rendering /tmp/vframes/f_00006.png\n",
      "rendering /tmp/vframes/f_00007.png\n",
      "rendering /tmp/vframes/f_00008.png\n",
      "rendering /tmp/vframes/f_00009.png\n",
      "rendering /tmp/vframes/f_00010.png\n",
      "rendering /tmp/vframes/f_00011.png\n",
      "rendering /tmp/vframes/f_00012.png\n",
      "rendering /tmp/vframes/f_00013.png\n",
      "rendering /tmp/vframes/f_00014.png\n",
      "rendering /tmp/vframes/f_00015.png\n",
      "rendering /tmp/vframes/f_00016.png\n",
      "rendering /tmp/vframes/f_00017.png\n",
      "rendering /tmp/vframes/f_00018.png\n",
      "rendering /tmp/vframes/f_00019.png\n",
      "rendering /tmp/vframes/f_00020.png\n",
      "rendering /tmp/vframes/f_00021.png\n",
      "rendering /tmp/vframes/f_00022.png\n",
      "rendering /tmp/vframes/f_00023.png\n",
      "rendering /tmp/vframes/f_00024.png\n",
      "rendering /tmp/vframes/f_00025.png\n",
      "rendering /tmp/vframes/f_00026.png\n",
      "rendering /tmp/vframes/f_00027.png\n",
      "rendering /tmp/vframes/f_00028.png\n",
      "rendering /tmp/vframes/f_00029.png\n",
      "rendering /tmp/vframes/f_00030.png\n",
      "rendering /tmp/vframes/f_00031.png\n",
      "rendering /tmp/vframes/f_00032.png\n",
      "rendering /tmp/vframes/f_00033.png\n",
      "rendering /tmp/vframes/f_00034.png\n",
      "rendering /tmp/vframes/f_00035.png\n",
      "rendering /tmp/vframes/f_00036.png\n",
      "rendering /tmp/vframes/f_00037.png\n",
      "rendering /tmp/vframes/f_00038.png\n",
      "rendering /tmp/vframes/f_00039.png\n",
      "rendering /tmp/vframes/f_00040.png\n",
      "rendering /tmp/vframes/f_00041.png\n",
      "rendering /tmp/vframes/f_00042.png\n",
      "rendering /tmp/vframes/f_00043.png\n",
      "rendering /tmp/vframes/f_00044.png\n",
      "rendering /tmp/vframes/f_00045.png\n",
      "rendering /tmp/vframes/f_00046.png\n",
      "rendering /tmp/vframes/f_00047.png\n",
      "rendering /tmp/vframes/f_00048.png\n",
      "rendering /tmp/vframes/f_00049.png\n",
      "rendering /tmp/vframes/f_00050.png\n",
      "rendering /tmp/vframes/f_00051.png\n",
      "rendering /tmp/vframes/f_00052.png\n",
      "rendering /tmp/vframes/f_00053.png\n",
      "rendering /tmp/vframes/f_00054.png\n",
      "rendering /tmp/vframes/f_00055.png\n",
      "rendering /tmp/vframes/f_00056.png\n",
      "rendering /tmp/vframes/f_00057.png\n",
      "rendering /tmp/vframes/f_00058.png\n",
      "rendering /tmp/vframes/f_00059.png\n",
      "rendering /tmp/vframes/f_00060.png\n",
      "rendering /tmp/vframes/f_00061.png\n",
      "rendering /tmp/vframes/f_00062.png\n",
      "rendering /tmp/vframes/f_00063.png\n",
      "rendering /tmp/vframes/f_00064.png\n",
      "rendering /tmp/vframes/f_00065.png\n",
      "rendering /tmp/vframes/f_00066.png\n",
      "rendering /tmp/vframes/f_00067.png\n",
      "rendering /tmp/vframes/f_00068.png\n",
      "rendering /tmp/vframes/f_00069.png\n",
      "rendering /tmp/vframes/f_00070.png\n",
      "rendering /tmp/vframes/f_00071.png\n",
      "rendering /tmp/vframes/f_00072.png\n",
      "rendering /tmp/vframes/f_00073.png\n",
      "rendering /tmp/vframes/f_00074.png\n",
      "rendering /tmp/vframes/f_00075.png\n",
      "rendering /tmp/vframes/f_00076.png\n",
      "rendering /tmp/vframes/f_00077.png\n",
      "rendering /tmp/vframes/f_00078.png\n",
      "rendering /tmp/vframes/f_00079.png\n",
      "rendering /tmp/vframes/f_00080.png\n",
      "rendering /tmp/vframes/f_00081.png\n",
      "rendering /tmp/vframes/f_00082.png\n",
      "rendering /tmp/vframes/f_00083.png\n",
      "rendering /tmp/vframes/f_00084.png\n",
      "rendering /tmp/vframes/f_00085.png\n",
      "rendering /tmp/vframes/f_00086.png\n",
      "rendering /tmp/vframes/f_00087.png\n",
      "rendering /tmp/vframes/f_00088.png\n",
      "rendering /tmp/vframes/f_00089.png\n",
      "rendering /tmp/vframes/f_00090.png\n",
      "rendering /tmp/vframes/f_00091.png\n",
      "rendering /tmp/vframes/f_00092.png\n",
      "rendering /tmp/vframes/f_00093.png\n",
      "rendering /tmp/vframes/f_00094.png\n",
      "rendering /tmp/vframes/f_00095.png\n",
      "rendering /tmp/vframes/f_00096.png\n",
      "rendering /tmp/vframes/f_00097.png\n",
      "rendering /tmp/vframes/f_00098.png\n",
      "rendering /tmp/vframes/f_00099.png\n",
      "rendering /tmp/vframes/f_00100.png\n",
      "rendering /tmp/vframes/f_00101.png\n",
      "rendering /tmp/vframes/f_00102.png\n",
      "rendering /tmp/vframes/f_00103.png\n",
      "rendering /tmp/vframes/f_00104.png\n",
      "rendering /tmp/vframes/f_00105.png\n",
      "rendering /tmp/vframes/f_00106.png\n",
      "rendering /tmp/vframes/f_00107.png\n",
      "rendering /tmp/vframes/f_00108.png\n",
      "rendering /tmp/vframes/f_00109.png\n",
      "rendering /tmp/vframes/f_00110.png\n",
      "rendering /tmp/vframes/f_00111.png\n",
      "rendering /tmp/vframes/f_00112.png\n",
      "rendering /tmp/vframes/f_00113.png\n",
      "rendering /tmp/vframes/f_00114.png\n",
      "rendering /tmp/vframes/f_00115.png\n",
      "rendering /tmp/vframes/f_00116.png\n",
      "rendering /tmp/vframes/f_00117.png\n",
      "rendering /tmp/vframes/f_00118.png\n",
      "rendering /tmp/vframes/f_00119.png\n",
      "rendering /tmp/vframes/f_00120.png\n",
      "rendering /tmp/vframes/f_00121.png\n",
      "rendering /tmp/vframes/f_00122.png\n",
      "rendering /tmp/vframes/f_00123.png\n",
      "rendering /tmp/vframes/f_00124.png\n",
      "rendering /tmp/vframes/f_00125.png\n",
      "rendering /tmp/vframes/f_00126.png\n",
      "rendering /tmp/vframes/f_00127.png\n",
      "rendering /tmp/vframes/f_00128.png\n",
      "rendering /tmp/vframes/f_00129.png\n",
      "rendering /tmp/vframes/f_00130.png\n",
      "rendering /tmp/vframes/f_00131.png\n",
      "rendering /tmp/vframes/f_00132.png\n",
      "rendering /tmp/vframes/f_00133.png\n",
      "rendering /tmp/vframes/f_00134.png\n",
      "rendering /tmp/vframes/f_00135.png\n",
      "rendering /tmp/vframes/f_00136.png\n",
      "rendering /tmp/vframes/f_00137.png\n",
      "rendering /tmp/vframes/f_00138.png\n",
      "rendering /tmp/vframes/f_00139.png\n",
      "rendering /tmp/vframes/f_00140.png\n",
      "rendering /tmp/vframes/f_00141.png\n",
      "rendering /tmp/vframes/f_00142.png\n",
      "rendering /tmp/vframes/f_00143.png\n",
      "rendering /tmp/vframes/f_00144.png\n",
      "rendering /tmp/vframes/f_00145.png\n",
      "rendering /tmp/vframes/f_00146.png\n",
      "rendering /tmp/vframes/f_00147.png\n",
      "rendering /tmp/vframes/f_00148.png\n",
      "rendering /tmp/vframes/f_00149.png\n",
      "rendering /tmp/vframes/f_00150.png\n",
      "rendering /tmp/vframes/f_00151.png\n",
      "rendering /tmp/vframes/f_00152.png\n",
      "rendering /tmp/vframes/f_00153.png\n",
      "rendering /tmp/vframes/f_00154.png\n",
      "rendering /tmp/vframes/f_00155.png\n",
      "rendering /tmp/vframes/f_00156.png\n",
      "rendering /tmp/vframes/f_00157.png\n",
      "rendering /tmp/vframes/f_00158.png\n",
      "rendering /tmp/vframes/f_00159.png\n",
      "rendering /tmp/vframes/f_00160.png\n",
      "rendering /tmp/vframes/f_00161.png\n",
      "rendering /tmp/vframes/f_00162.png\n",
      "rendering /tmp/vframes/f_00163.png\n",
      "rendering /tmp/vframes/f_00164.png\n",
      "rendering /tmp/vframes/f_00165.png\n",
      "rendering /tmp/vframes/f_00166.png\n",
      "rendering /tmp/vframes/f_00167.png\n",
      "rendering /tmp/vframes/f_00168.png\n",
      "rendering /tmp/vframes/f_00169.png\n",
      "rendering /tmp/vframes/f_00170.png\n",
      "rendering /tmp/vframes/f_00171.png\n",
      "rendering /tmp/vframes/f_00172.png\n",
      "rendering /tmp/vframes/f_00173.png\n",
      "rendering /tmp/vframes/f_00174.png\n",
      "rendering /tmp/vframes/f_00175.png\n",
      "rendering /tmp/vframes/f_00176.png\n",
      "rendering /tmp/vframes/f_00177.png\n",
      "rendering /tmp/vframes/f_00178.png\n",
      "rendering /tmp/vframes/f_00179.png\n",
      "rendering /tmp/vframes/f_00180.png\n",
      "rendering /tmp/vframes/f_00181.png\n",
      "rendering /tmp/vframes/f_00182.png\n",
      "rendering /tmp/vframes/f_00183.png\n",
      "rendering /tmp/vframes/f_00184.png\n",
      "rendering /tmp/vframes/f_00185.png\n",
      "rendering /tmp/vframes/f_00186.png\n",
      "rendering /tmp/vframes/f_00187.png\n",
      "rendering /tmp/vframes/f_00188.png\n",
      "rendering /tmp/vframes/f_00189.png\n",
      "rendering /tmp/vframes/f_00190.png\n",
      "rendering /tmp/vframes/f_00191.png\n",
      "rendering /tmp/vframes/f_00192.png\n",
      "rendering /tmp/vframes/f_00193.png\n",
      "rendering /tmp/vframes/f_00194.png\n",
      "rendering /tmp/vframes/f_00195.png\n",
      "rendering /tmp/vframes/f_00196.png\n",
      "rendering /tmp/vframes/f_00197.png\n",
      "rendering /tmp/vframes/f_00198.png\n",
      "rendering /tmp/vframes/f_00199.png\n",
      "rendering /tmp/vframes/f_00200.png\n",
      "rendering /tmp/vframes/f_00201.png\n",
      "rendering /tmp/vframes/f_00202.png\n",
      "rendering /tmp/vframes/f_00203.png\n",
      "rendering /tmp/vframes/f_00204.png\n",
      "rendering /tmp/vframes/f_00205.png\n",
      "rendering /tmp/vframes/f_00206.png\n",
      "rendering /tmp/vframes/f_00207.png\n",
      "rendering /tmp/vframes/f_00208.png\n",
      "rendering /tmp/vframes/f_00209.png\n",
      "rendering /tmp/vframes/f_00210.png\n",
      "rendering /tmp/vframes/f_00211.png\n",
      "rendering /tmp/vframes/f_00212.png\n",
      "rendering /tmp/vframes/f_00213.png\n",
      "rendering /tmp/vframes/f_00214.png\n",
      "rendering /tmp/vframes/f_00215.png\n",
      "rendering /tmp/vframes/f_00216.png\n",
      "rendering /tmp/vframes/f_00217.png\n",
      "rendering /tmp/vframes/f_00218.png\n",
      "rendering /tmp/vframes/f_00219.png\n",
      "rendering /tmp/vframes/f_00220.png\n",
      "rendering /tmp/vframes/f_00221.png\n",
      "rendering /tmp/vframes/f_00222.png\n",
      "rendering /tmp/vframes/f_00223.png\n",
      "rendering /tmp/vframes/f_00224.png\n",
      "rendering /tmp/vframes/f_00225.png\n",
      "rendering /tmp/vframes/f_00226.png\n",
      "rendering /tmp/vframes/f_00227.png\n",
      "rendering /tmp/vframes/f_00228.png\n",
      "rendering /tmp/vframes/f_00229.png\n",
      "rendering /tmp/vframes/f_00230.png\n",
      "rendering /tmp/vframes/f_00231.png\n",
      "rendering /tmp/vframes/f_00232.png\n",
      "rendering /tmp/vframes/f_00233.png\n",
      "rendering /tmp/vframes/f_00234.png\n",
      "rendering /tmp/vframes/f_00235.png\n"
     ]
    },
    {
     "name": "stdout",
     "output_type": "stream",
     "text": [
      "rendering /tmp/vframes/f_00236.png\n",
      "rendering /tmp/vframes/f_00237.png\n",
      "rendering /tmp/vframes/f_00238.png\n",
      "rendering /tmp/vframes/f_00239.png\n"
     ]
    },
    {
     "name": "stderr",
     "output_type": "stream",
     "text": [
      "ffmpeg version 4.2.4-1ubuntu0.1 Copyright (c) 2000-2020 the FFmpeg developers\n",
      "  built with gcc 9 (Ubuntu 9.3.0-10ubuntu2)\n",
      "  configuration: --prefix=/usr --extra-version=1ubuntu0.1 --toolchain=hardened --libdir=/usr/lib/x86_64-linux-gnu --incdir=/usr/include/x86_64-linux-gnu --arch=amd64 --enable-gpl --disable-stripping --enable-avresample --disable-filter=resample --enable-avisynth --enable-gnutls --enable-ladspa --enable-libaom --enable-libass --enable-libbluray --enable-libbs2b --enable-libcaca --enable-libcdio --enable-libcodec2 --enable-libflite --enable-libfontconfig --enable-libfreetype --enable-libfribidi --enable-libgme --enable-libgsm --enable-libjack --enable-libmp3lame --enable-libmysofa --enable-libopenjpeg --enable-libopenmpt --enable-libopus --enable-libpulse --enable-librsvg --enable-librubberband --enable-libshine --enable-libsnappy --enable-libsoxr --enable-libspeex --enable-libssh --enable-libtheora --enable-libtwolame --enable-libvidstab --enable-libvorbis --enable-libvpx --enable-libwavpack --enable-libwebp --enable-libx265 --enable-libxml2 --enable-libxvid --enable-libzmq --enable-libzvbi --enable-lv2 --enable-omx --enable-openal --enable-opencl --enable-opengl --enable-sdl2 --enable-libdc1394 --enable-libdrm --enable-libiec61883 --enable-nvenc --enable-chromaprint --enable-frei0r --enable-libx264 --enable-shared\n",
      "  libavutil      56. 31.100 / 56. 31.100\n",
      "  libavcodec     58. 54.100 / 58. 54.100\n",
      "  libavformat    58. 29.100 / 58. 29.100\n",
      "  libavdevice    58.  8.100 / 58.  8.100\n",
      "  libavfilter     7. 57.100 /  7. 57.100\n",
      "  libavresample   4.  0.  0 /  4.  0.  0\n",
      "  libswscale      5.  5.100 /  5.  5.100\n",
      "  libswresample   3.  5.100 /  3.  5.100\n",
      "  libpostproc    55.  5.100 / 55.  5.100\n",
      "Input #0, image2, from '/tmp/vframes/f_%05d.png':\n",
      "  Duration: 00:00:15.93, start: 0.000000, bitrate: N/A\n",
      "    Stream #0:0: Video: png, rgba(pc), 816x401 [SAR 2835:2835 DAR 816:401], 15 fps, 15 tbr, 15 tbn, 15 tbc\n",
      "Please use -b:a or -b:v, -b is ambiguous\n",
      "Stream mapping:\n",
      "  Stream #0:0 -> #0:0 (png (native) -> h264 (libx264))\n",
      "Press [q] to stop, [?] for help\n",
      "[libx264 @ 0x56267c08a0c0] using SAR=1/1\n",
      "[libx264 @ 0x56267c08a0c0] using cpu capabilities: MMX2 SSE2Fast SSSE3 SSE4.2 AVX FMA3 BMI2 AVX2\n",
      "[libx264 @ 0x56267c08a0c0] profile High, level 2.2\n",
      "[libx264 @ 0x56267c08a0c0] 264 - core 155 r2917 0a84d98 - H.264/MPEG-4 AVC codec - Copyleft 2003-2018 - http://www.videolan.org/x264.html - options: cabac=1 ref=3 deblock=1:0:0 analyse=0x3:0x113 me=hex subme=7 psy=1 psy_rd=1.00:0.00 mixed_ref=1 me_range=16 chroma_me=1 trellis=1 8x8dct=1 cqm=0 deadzone=21,11 fast_pskip=1 chroma_qp_offset=-2 threads=12 lookahead_threads=2 sliced_threads=0 nr=0 decimate=1 interlaced=0 bluray_compat=0 constrained_intra=0 bframes=3 b_pyramid=2 b_adapt=1 b_bias=0 direct=1 weightb=1 open_gop=0 weightp=2 keyint=250 keyint_min=15 scenecut=40 intra_refresh=0 rc_lookahead=40 rc=crf mbtree=1 crf=25.0 qcomp=0.60 qpmin=0 qpmax=69 qpstep=4 ip_ratio=1.40 aq=1:1.00\n",
      "Output #0, mp4, to '/home/nico/CLionProjects/route3/crates/route3_road/doc/within-threshold.mp4':\n",
      "  Metadata:\n",
      "    encoder         : Lavf58.29.100\n",
      "    Stream #0:0: Video: h264 (libx264) (avc1 / 0x31637661), yuv420p, 816x400 [SAR 1:1 DAR 51:25], q=-1--1, 10000 kb/s, 15 fps, 15360 tbn, 15 tbc\n",
      "    Metadata:\n",
      "      encoder         : Lavc58.54.100 libx264\n",
      "    Side data:\n",
      "      cpb: bitrate max/min/avg: 0/0/10000000 buffer size: 0 vbv_delay: -1\n",
      "[mp4 @ 0x56267c087980] Starting second pass: moving the moov atom to the beginning of the file   \n",
      "frame=  239 fps=0.0 q=-1.0 Lsize=     238kB time=00:00:15.73 bitrate= 124.2kbits/s speed=27.1x    \n",
      "video:236kB audio:0kB subtitle:0kB other streams:0kB global headers:0kB muxing overhead: 1.052318%\n",
      "[libx264 @ 0x56267c08a0c0] frame I:1     Avg QP:19.91  size: 82335\n",
      "[libx264 @ 0x56267c08a0c0] frame P:191   Avg QP:21.65  size:   808\n",
      "[libx264 @ 0x56267c08a0c0] frame B:47    Avg QP:23.27  size:    92\n",
      "[libx264 @ 0x56267c08a0c0] consecutive B-frames: 67.4% 17.6%  5.0% 10.0%\n",
      "[libx264 @ 0x56267c08a0c0] mb I  I16..4:  5.0% 24.5% 70.4%\n",
      "[libx264 @ 0x56267c08a0c0] mb P  I16..4:  0.0%  0.0%  0.0%  P16..4:  2.7%  0.2%  0.2%  0.0%  0.0%    skip:96.8%\n",
      "[libx264 @ 0x56267c08a0c0] mb B  I16..4:  0.0%  0.0%  0.0%  B16..8:  1.2%  0.1%  0.0%  direct: 0.1%  skip:98.5%  L0:47.9% L1:51.1% BI: 1.0%\n",
      "[libx264 @ 0x56267c08a0c0] 8x8 transform intra:24.6% inter:7.2%\n",
      "[libx264 @ 0x56267c08a0c0] coded y,uvDC,uvAC intra: 94.8% 3.8% 3.6% inter: 0.9% 1.8% 1.7%\n",
      "[libx264 @ 0x56267c08a0c0] i16 v,h,dc,p: 50%  2% 48%  0%\n",
      "[libx264 @ 0x56267c08a0c0] i8 v,h,dc,ddl,ddr,vr,hd,vl,hu: 11%  5% 12% 12% 12%  9% 10% 12% 17%\n",
      "[libx264 @ 0x56267c08a0c0] i4 v,h,dc,ddl,ddr,vr,hd,vl,hu: 13% 12% 10% 10% 11%  8% 12% 10% 12%\n",
      "[libx264 @ 0x56267c08a0c0] i8c dc,h,v,p: 96%  0%  4%  0%\n",
      "[libx264 @ 0x56267c08a0c0] Weighted P-Frames: Y:0.0% UV:0.0%\n",
      "[libx264 @ 0x56267c08a0c0] ref P L0: 89.2%  4.5%  4.3%  2.0%\n",
      "[libx264 @ 0x56267c08a0c0] ref B L0: 94.5%  4.4%  1.1%\n",
      "[libx264 @ 0x56267c08a0c0] ref B L1: 99.5%  0.5%\n",
      "[libx264 @ 0x56267c08a0c0] kb/s:120.99\n"
     ]
    },
    {
     "data": {
      "text/plain": [
       "0"
      ]
     },
     "execution_count": 44,
     "metadata": {},
     "output_type": "execute_result"
    }
   ],
   "source": [
    "def calc_upto_some_threshold(gh, num_secs):\n",
    "    origins = [   \n",
    "        # h3.geo_to_h3(48.28713017627725, 8.111112713813782, gh.h3_resolution), # Fischerbach\n",
    "        h3.geo_to_h3(48.291916615643935, 8.218567371368408, gh.h3_resolution) # Wolfach\n",
    "    ]\n",
    "    \n",
    "    request = rrc.build_h3_within_threshold_request(\n",
    "        gh,\n",
    "        origins,\n",
    "        travel_duration_secs_threshold=int(num_secs)\n",
    "    )\n",
    "    return server.h3_cells_within_threshold(request).table\n",
    "\n",
    "from mpl_toolkits.axes_grid1 import make_axes_locatable\n",
    "import tempfile\n",
    "\n",
    "def within_threshold_render_frames(max_secs, step_secs):\n",
    "    outdir = Path(tempfile.gettempdir()) / \"vframes\"\n",
    "    if outdir.exists():\n",
    "        import shutil\n",
    "        shutil.rmtree(outdir)\n",
    "    os.mkdir(outdir)\n",
    "\n",
    "    gdf = table_to_geodataframe(calc_upto_some_threshold(graph_handle, max_secs), column_name=\"h3index_cell_origin\")\n",
    "\n",
    "    for secs in range(step_secs, max_secs, step_secs):\n",
    "        step_gdf = gdf[gdf[\"travel_duration_secs\"] <= secs]\n",
    "        fig, ax = plt.subplots(figsize=(14, 14))\n",
    "\n",
    "        divider = make_axes_locatable(ax)\n",
    "        cax = divider.append_axes(\"right\", size=\"2%\", pad=0.1)\n",
    "        #cax.tick_params(labelsize=25)\n",
    "\n",
    "        step_gdf.plot(\"travel_duration_secs\",\n",
    "                        ax=ax, \n",
    "                        zorder=10, \n",
    "                        alpha=0.9, \n",
    "                        cmap=\"viridis\", \n",
    "                        edgecolor=\"black\", \n",
    "                        linewidth=0.3,\n",
    "                        legend=True,\n",
    "                        vmin=0, \n",
    "                        vmax=max_secs,\n",
    "                        cax=cax,\n",
    "        )\n",
    "\n",
    "        p_hillshade = ep.plot_bands(\n",
    "            hillshade,\n",
    "            ax=ax,\n",
    "            cbar=False,\n",
    "            alpha=0.3,\n",
    "            extent=hillshade_plotting_extent,\n",
    "            title=\"Travel durations in the H3-grid graph [seconds]\",\n",
    "        )\n",
    "        frame_num = int(secs/step_secs)\n",
    "        outpng = outdir / f'f_{frame_num:05}.png'\n",
    "        print(f\"rendering {outpng}\")\n",
    "        plt.savefig(outpng, pad_inches=0, bbox_inches='tight')\n",
    "        plt.close(fig)\n",
    "    return outdir\n",
    "\n",
    "#plt.show()\n",
    "\n",
    "outdir = within_threshold_render_frames(60*20, 60*2)\n",
    "# http://blog.pkh.me/p/21-high-quality-gif-with-ffmpeg.html\n",
    "gif_filters=\"scale=800:-1:flags=lanczos\"\n",
    "gif_palette = outdir / \"palette.png\"\n",
    "subprocess.check_call([\"ffmpeg\", \"-y\", \"-i\", f\"{str(outdir)}/f_%05d.png\", \n",
    "                      '-vf', f\"{gif_filters},palettegen\", str(gif_palette)])\n",
    "subprocess.check_call([\"ffmpeg\", \"-y\", \"-framerate\", \"2\", \"-i\", f\"{str(outdir)}/f_%05d.png\", \"-i\", str(gif_palette), \n",
    "                       \"-lavfi\", f\"{gif_filters} [x]; [x][1:v] paletteuse\", \n",
    "                       f'{str(notebookdir)}/within-threshold.gif'])\n",
    "\n",
    "\n",
    "outdir = within_threshold_render_frames(60*20, 5)\n",
    "subprocess.check_call([\"ffmpeg\", \"-y\", \"-framerate\", \"15\", \"-i\", f\"{str(outdir)}/f_%05d.png\", \n",
    "                       '-crf', '25',\n",
    "                       '-b', '10M',\n",
    "                       \"-pix_fmt\", \"yuv420p\",\n",
    "                       \"-c:v\", \"libx264\", # to be supported in firefox\n",
    "                       \"-movflags\", \"+faststart\", # browser-specific \n",
    "                       \"-filter:v\", \"crop='floor(in_w/2)*2:floor(in_h/2)*2'\", # yuv420p only supports even width and height\n",
    "                       f'{str(notebookdir)}/within-threshold.mp4'])"
   ]
  },
  {
   "cell_type": "code",
   "execution_count": null,
   "id": "a33a32a7",
   "metadata": {},
   "outputs": [],
   "source": []
  }
 ],
 "metadata": {
  "kernelspec": {
   "display_name": "Python 3 (ipykernel)",
   "language": "python",
   "name": "python3"
  },
  "language_info": {
   "codemirror_mode": {
    "name": "ipython",
    "version": 3
   },
   "file_extension": ".py",
   "mimetype": "text/x-python",
   "name": "python",
   "nbconvert_exporter": "python",
   "pygments_lexer": "ipython3",
   "version": "3.8.10"
  }
 },
 "nbformat": 4,
 "nbformat_minor": 5
}
